<?xml version="1.0" encoding="utf-8"?>
<svg version="1.1" xmlns="http://www.w3.org/2000/svg" xmlns:xlink="http://www.w3.org/1999/xlink" x="0px" y="0px"
	 width="283.46px" height="113.39px" viewBox="0 0 283.46 113.39" style="enable-background:new 0 0 283.46 113.39;"
	 xml:space="preserve">
<style type="text/css">
	.st0{opacity:0.2;}
	.st1{fill:none;stroke:#C45814;stroke-width:8;stroke-miterlimit:10;}
	.st2{fill:#C45814;}
	.st3{fill:none;stroke:#3A2D72;stroke-width:8;stroke-miterlimit:10;}
	.st4{fill:#3A2D72;}
	.st5{opacity:0.2;fill:#C45814;}
	.st6{fill:#FFFFFF;}
	.st7{fill:#3E2C70;}
	.st8{fill:#1D1D1B;}
</style>
<g id="Arrows">
	<g class="st0">
		<g>
			<line class="st1" x1="44.5" y1="42.7" x2="44.5" y2="109.76"/>
			<g>
				<polygon class="st2" points="34.53,45.62 44.5,28.35 54.47,45.62 				"/>
			</g>
		</g>
	</g>
	<g class="st0">
		<g>
			<line class="st3" x1="18.75" y1="95.41" x2="18.75" y2="28.35"/>
			<g>
				<polygon class="st4" points="28.72,92.49 18.75,109.76 8.78,92.49 				"/>
			</g>
		</g>
	</g>
</g>
<g id="Lines">
	<g>
		<path class="st4" d="M71.81,95.51c0,0.94,0.25,1.33,0.95,1.33H174.6c1.02,0,2.3,0.39,2.53,1.05c0.22-0.66,1.48-1.05,2.5-1.05
			h101.89c0.7,0,0.95-0.39,0.95-1.33h0.99c0,1.89-0.62,2.55-2.09,2.55H179.73c-0.77,0-2.06,1.24-2.06,1.98h-1.06
			c0-0.74-1.32-1.98-2.09-1.98H72.9c-1.47,0-2.09-0.66-2.09-2.55H71.81z"/>
	</g>
	<polygon class="st5" points="226.77,28.35 70.82,64.14 283.42,64.14 269.29,28.35 	"/>
</g>
<g id="Blocks">
	<rect x="56.69" class="st4" width="170.08" height="28.35"/>
	<rect x="70.87" y="64.14" class="st4" width="106.3" height="28.35"/>
	<rect x="177.17" y="64.14" class="st2" width="106.3" height="28.35"/>
	<rect x="226.77" class="st2" width="42.52" height="28.35"/>
</g>
<g id="Labels">
	<g>
		<path class="st6" d="M88.93,12.17l-0.62,0.84c-0.29-0.22-0.54-0.34-0.84-0.34c-0.55,0-0.87,0.39-0.87,1.71
			c0,1.28,0.36,1.61,0.87,1.61c0.29,0,0.51-0.11,0.81-0.32l0.66,0.88c-0.42,0.38-0.93,0.62-1.57,0.62c-1.46,0-2.35-1.04-2.35-2.78
			c0-1.77,0.9-2.87,2.33-2.87C87.99,11.52,88.5,11.74,88.93,12.17z"/>
		<path class="st6" d="M93.62,14.35c0,1.8-0.87,2.82-2.29,2.82c-1.41,0-2.29-0.94-2.29-2.83c0-1.82,0.87-2.82,2.29-2.82
			C92.74,11.52,93.62,12.45,93.62,14.35z M90.6,14.34c0,1.29,0.23,1.72,0.73,1.72c0.5,0,0.74-0.45,0.74-1.71
			c0-1.28-0.24-1.71-0.74-1.71C90.84,12.64,90.6,13.09,90.6,14.34z"/>
		<path class="st6" d="M98.46,13.13v3.87h-1.51v-3.7c0-0.48-0.13-0.63-0.35-0.63c-0.25,0-0.48,0.24-0.71,0.64v3.69h-1.51v-5.31h1.32
			l0.11,0.63c0.36-0.52,0.78-0.8,1.37-0.8C97.99,11.52,98.46,12.11,98.46,13.13z"/>
		<path class="st6" d="M102.4,16.74c-0.36,0.29-0.88,0.42-1.3,0.42c-1.08,0-1.58-0.67-1.58-1.67v-2.76h-0.59v-1.05h0.59v-1.16
			l1.51-0.17v1.33h1.05l-0.16,1.05h-0.89v2.74c0,0.33,0.14,0.49,0.41,0.49c0.16,0,0.29-0.05,0.46-0.14L102.4,16.74z"/>
		<path class="st6" d="M105.86,11.62l-0.25,1.45c-0.13-0.04-0.25-0.06-0.4-0.06c-0.56,0-0.77,0.48-0.92,1.19v2.8h-1.51v-5.31h1.32
			l0.11,0.91c0.24-0.67,0.63-1.06,1.2-1.06C105.58,11.54,105.72,11.57,105.86,11.62z"/>
		<path class="st6" d="M110.58,14.35c0,1.8-0.87,2.82-2.29,2.82c-1.41,0-2.29-0.94-2.29-2.83c0-1.82,0.87-2.82,2.29-2.82
			C109.71,11.52,110.58,12.45,110.58,14.35z M107.57,14.34c0,1.29,0.23,1.72,0.73,1.72c0.5,0,0.74-0.45,0.74-1.71
			c0-1.28-0.24-1.71-0.74-1.71C107.81,12.64,107.57,13.09,107.57,14.34z"/>
		<path class="st6" d="M111.31,15.76V9.58l1.51-0.16v6.28c0,0.18,0.07,0.27,0.23,0.27c0.08,0,0.15-0.01,0.2-0.03l0.28,1.04
			c-0.2,0.1-0.52,0.19-0.86,0.19C111.81,17.16,111.31,16.62,111.31,15.76z"/>
		<path class="st6" d="M113.95,15.76V9.58l1.51-0.16v6.28c0,0.18,0.07,0.27,0.23,0.27c0.08,0,0.15-0.01,0.2-0.03l0.28,1.04
			c-0.2,0.1-0.52,0.19-0.86,0.19C114.45,17.16,113.95,16.62,113.95,15.76z"/>
		<path class="st6" d="M120.71,14.79h-2.84c0.08,1.01,0.43,1.27,0.96,1.27c0.41,0,0.73-0.14,1.12-0.44l0.61,0.82
			c-0.44,0.42-1.05,0.73-1.84,0.73c-1.57,0-2.36-1.09-2.36-2.79c0-1.68,0.76-2.86,2.21-2.86c1.32,0,2.17,0.92,2.17,2.72
			C120.73,14.41,120.71,14.64,120.71,14.79z M119.27,13.81c-0.01-0.85-0.18-1.29-0.68-1.29c-0.42,0-0.67,0.3-0.72,1.37h1.4V13.81z"
			/>
		<path class="st6" d="M125.69,9.58v7.42h-1.34l-0.06-0.58c-0.27,0.42-0.66,0.75-1.28,0.75c-1.17,0-1.76-1.04-1.76-2.83
			c0-1.72,0.77-2.82,1.88-2.82c0.45,0,0.8,0.2,1.05,0.5v-2.6L125.69,9.58z M124.19,15.52v-2.46c-0.18-0.27-0.36-0.43-0.62-0.43
			c-0.43,0-0.75,0.42-0.75,1.71c0,1.39,0.29,1.72,0.68,1.72C123.79,16.05,124,15.86,124.19,15.52z"/>
		<path class="st6" d="M131.74,11.62l-0.25,1.45c-0.13-0.04-0.25-0.06-0.4-0.06c-0.56,0-0.77,0.48-0.92,1.19v2.8h-1.51v-5.31h1.32
			l0.11,0.91c0.24-0.67,0.63-1.06,1.2-1.06C131.46,11.54,131.6,11.57,131.74,11.62z"/>
		<path class="st6" d="M136.23,14.79h-2.84c0.08,1.01,0.43,1.27,0.96,1.27c0.41,0,0.73-0.14,1.12-0.44l0.61,0.82
			c-0.44,0.42-1.05,0.73-1.84,0.73c-1.57,0-2.36-1.09-2.36-2.79c0-1.68,0.76-2.86,2.21-2.86c1.32,0,2.17,0.92,2.17,2.72
			C136.26,14.41,136.25,14.64,136.23,14.79z M134.8,13.81c-0.01-0.85-0.18-1.29-0.68-1.29c-0.42,0-0.67,0.3-0.72,1.37h1.4V13.81z"/>
		<path class="st6" d="M140.39,12.17l-0.55,0.82c-0.36-0.24-0.7-0.39-1.06-0.39c-0.35,0-0.56,0.17-0.56,0.45
			c0,0.3,0.16,0.44,0.95,0.75c0.89,0.33,1.38,0.76,1.38,1.64c0,1.08-0.89,1.73-2.09,1.73c-0.8,0-1.49-0.3-1.96-0.78l0.71-0.79
			c0.35,0.28,0.76,0.5,1.18,0.5c0.39,0,0.62-0.2,0.62-0.53c0-0.37-0.16-0.53-0.94-0.82c-0.95-0.36-1.34-0.82-1.34-1.59
			c0-0.93,0.7-1.64,1.92-1.64C139.35,11.52,139.95,11.77,140.39,12.17z"/>
		<path class="st6" d="M145.31,14.79h-2.84c0.08,1.01,0.43,1.27,0.96,1.27c0.41,0,0.73-0.14,1.12-0.44l0.61,0.82
			c-0.44,0.42-1.05,0.73-1.84,0.73c-1.57,0-2.36-1.09-2.36-2.79c0-1.68,0.76-2.86,2.21-2.86c1.32,0,2.17,0.92,2.17,2.72
			C145.34,14.41,145.33,14.64,145.31,14.79z M143.88,13.81c-0.01-0.85-0.18-1.29-0.68-1.29c-0.42,0-0.67,0.3-0.72,1.37h1.4V13.81z"
			/>
		<path class="st6" d="M150.12,16.14l-0.31,0.99c-0.57-0.05-0.95-0.24-1.15-0.73c-0.36,0.55-0.86,0.76-1.39,0.76
			c-0.92,0-1.5-0.66-1.5-1.66c0-1.15,0.76-1.78,2.19-1.78h0.39v-0.27c0-0.65-0.19-0.85-0.72-0.85c-0.35,0-0.74,0.1-1.2,0.26
			l-0.33-0.95c0.57-0.26,1.24-0.4,1.81-0.4c1.3,0,1.91,0.6,1.91,1.86v2.18C149.82,15.91,149.9,16.05,150.12,16.14z M148.36,15.58
			v-1.02h-0.25c-0.58,0-0.85,0.26-0.85,0.81c0,0.47,0.18,0.72,0.48,0.72C148.01,16.09,148.22,15.9,148.36,15.58z"/>
		<path class="st6" d="M153.92,11.62l-0.25,1.45c-0.13-0.04-0.25-0.06-0.4-0.06c-0.56,0-0.77,0.48-0.92,1.19v2.8h-1.51v-5.31h1.32
			l0.11,0.91c0.24-0.67,0.63-1.06,1.2-1.06C153.63,11.54,153.78,11.57,153.92,11.62z"/>
		<path class="st6" d="M157.97,12.17l-0.62,0.84c-0.29-0.22-0.54-0.34-0.84-0.34c-0.55,0-0.87,0.39-0.87,1.71
			c0,1.28,0.36,1.61,0.87,1.61c0.29,0,0.51-0.11,0.81-0.32l0.66,0.88c-0.42,0.38-0.93,0.62-1.57,0.62c-1.46,0-2.35-1.04-2.35-2.78
			c0-1.77,0.9-2.87,2.33-2.87C157.04,11.52,157.54,11.74,157.97,12.17z"/>
		<path class="st6" d="M162.54,13.13v3.87h-1.51v-3.7c0-0.48-0.13-0.63-0.35-0.63c-0.25,0-0.48,0.24-0.71,0.64v3.69h-1.51V9.58
			l1.51-0.15v2.84c0.36-0.5,0.76-0.75,1.29-0.75C162.06,11.52,162.54,12.11,162.54,13.13z"/>
		<path class="st6" d="M169.88,14.33c0,1.72-0.7,2.84-1.81,2.84c-0.45,0-0.81-0.19-1.1-0.55v2.43l-1.51,0.16v-7.52h1.34l0.07,0.59
			c0.36-0.54,0.81-0.76,1.33-0.76C169.33,11.52,169.88,12.54,169.88,14.33z M168.33,14.35c0-1.39-0.25-1.72-0.64-1.72
			c-0.29,0-0.53,0.23-0.72,0.58v2.41c0.18,0.28,0.39,0.44,0.65,0.44C168.04,16.05,168.33,15.63,168.33,14.35z"/>
		<path class="st6" d="M173.75,11.62l-0.25,1.45c-0.13-0.04-0.25-0.06-0.4-0.06c-0.56,0-0.77,0.48-0.92,1.19v2.8h-1.51v-5.31h1.32
			l0.11,0.91c0.24-0.67,0.63-1.06,1.2-1.06C173.46,11.54,173.61,11.57,173.75,11.62z"/>
		<path class="st6" d="M178.47,14.35c0,1.8-0.87,2.82-2.29,2.82c-1.41,0-2.29-0.94-2.29-2.83c0-1.82,0.87-2.82,2.29-2.82
			C177.59,11.52,178.47,12.45,178.47,14.35z M175.46,14.34c0,1.29,0.23,1.72,0.73,1.72s0.74-0.45,0.74-1.71
			c0-1.28-0.24-1.71-0.74-1.71C175.7,12.64,175.46,13.09,175.46,14.34z"/>
		<path class="st6" d="M183.66,14.35c0,1.72-0.68,2.82-1.82,2.82c-0.5,0-0.91-0.25-1.19-0.67l-0.07,0.5h-1.34V9.58l1.51-0.16v2.78
			c0.28-0.42,0.72-0.68,1.25-0.68C183.08,11.52,183.66,12.49,183.66,14.35z M182.12,14.35c0-1.44-0.27-1.72-0.64-1.72
			c-0.28,0-0.52,0.24-0.72,0.59v2.37c0.16,0.29,0.38,0.48,0.65,0.48C181.83,16.06,182.12,15.69,182.12,14.35z"/>
		<path class="st6" d="M184.4,15.76V9.58l1.51-0.16v6.28c0,0.18,0.07,0.27,0.23,0.27c0.08,0,0.15-0.01,0.2-0.03l0.28,1.04
			c-0.2,0.1-0.52,0.19-0.86,0.19C184.9,17.16,184.4,16.62,184.4,15.76z"/>
		<path class="st6" d="M191.15,14.79h-2.84c0.08,1.01,0.43,1.27,0.96,1.27c0.41,0,0.73-0.14,1.12-0.44l0.61,0.82
			c-0.44,0.42-1.05,0.73-1.84,0.73c-1.57,0-2.36-1.09-2.36-2.79c0-1.68,0.76-2.86,2.21-2.86c1.32,0,2.17,0.92,2.17,2.72
			C191.18,14.41,191.16,14.64,191.15,14.79z M189.71,13.81c-0.01-0.85-0.18-1.29-0.68-1.29c-0.42,0-0.67,0.3-0.72,1.37h1.4V13.81z"
			/>
		<path class="st6" d="M198.26,13.13v3.87h-1.48v-3.71c0-0.48-0.12-0.63-0.33-0.63c-0.24,0-0.43,0.22-0.63,0.6v3.74h-1.47v-3.71
			c0-0.48-0.13-0.63-0.33-0.63c-0.25,0-0.44,0.22-0.63,0.6v3.74h-1.49v-5.31h1.32l0.09,0.64c0.36-0.52,0.77-0.81,1.32-0.81
			c0.51,0,0.9,0.31,1.08,0.85c0.36-0.55,0.78-0.85,1.35-0.85C197.78,11.52,198.26,12.11,198.26,13.13z"/>
	</g>
	<g>
		<path class="st7" d="M133.23,37.3c0,1.09-0.96,2-2.64,2c-1.63,0-2.58-0.89-2.58-1.97c0-0.8,0.48-1.34,1.26-1.68
			c-0.71-0.42-0.99-0.98-0.99-1.6c0-1.09,0.99-1.82,2.35-1.82c1.34,0,2.34,0.64,2.34,1.74c0,0.58-0.33,1.13-1.08,1.53
			C132.81,35.94,133.23,36.53,133.23,37.3z M131.65,37.29c0-0.55-0.28-0.81-1.04-1.09l-0.34-0.12c-0.45,0.26-0.67,0.66-0.67,1.17
			c0,0.56,0.4,0.92,1.04,0.92C131.31,38.17,131.65,37.78,131.65,37.29z M129.81,34.08c0,0.47,0.27,0.72,0.82,0.95l0.22,0.08
			c0.46-0.32,0.59-0.64,0.59-1.05c0-0.44-0.27-0.75-0.8-0.75C130.14,33.31,129.81,33.57,129.81,34.08z"/>
		<path class="st7" d="M139.01,35.76c0,2.26-0.89,3.54-2.55,3.54c-1.66,0-2.55-1.28-2.55-3.54c0-2.27,0.89-3.53,2.55-3.53
			C138.12,32.24,139.01,33.5,139.01,35.76z M135.53,35.76c0,1.79,0.27,2.37,0.93,2.37c0.65,0,0.93-0.54,0.93-2.37
			c0-1.84-0.28-2.36-0.93-2.36C135.8,33.41,135.53,33.98,135.53,35.76z"/>
		<path class="st7" d="M143.23,34.04c0,1.1-0.78,1.8-1.78,1.8c-0.99,0-1.78-0.7-1.78-1.8c0-1.1,0.79-1.8,1.78-1.8
			C142.45,32.24,143.23,32.94,143.23,34.04z M140.8,34.04c0,0.42,0.13,0.85,0.65,0.85s0.64-0.42,0.64-0.85
			c0-0.42-0.12-0.85-0.64-0.85S140.8,33.61,140.8,34.04z M146.49,32.56l-4.63,6.98l-0.97-0.62l4.63-6.98L146.49,32.56z M147.68,37.5
			c0,1.11-0.78,1.8-1.78,1.8c-1,0-1.79-0.69-1.79-1.8c0-1.1,0.79-1.79,1.79-1.79C146.9,35.71,147.68,36.4,147.68,37.5z M145.25,37.5
			c0,0.42,0.13,0.86,0.65,0.86s0.64-0.43,0.64-0.86c0-0.42-0.12-0.84-0.64-0.84S145.25,37.08,145.25,37.5z"/>
	</g>
	<g>
		<path class="st4" d="M153.81,107.74c0,1.18-1.09,2.19-2.86,2.19c-1.49,0-2.32-0.79-2.32-1.83c0-0.68,0.38-1.39,1.51-1.84
			c-0.55-0.37-0.78-0.84-0.78-1.37c0-1.06,0.89-2.03,2.52-2.03c1.24,0,2.14,0.6,2.14,1.61c0,0.6-0.35,1.21-1.31,1.68
			C153.45,106.54,153.81,107.08,153.81,107.74z M152.25,107.7c0-0.41-0.25-0.63-0.88-0.88l-0.3-0.11c-0.71,0.37-0.87,0.94-0.87,1.32
			c0,0.47,0.33,0.77,0.89,0.77C151.84,108.8,152.25,108.3,152.25,107.7z M150.85,104.85c0,0.39,0.23,0.62,0.68,0.82l0.19,0.07
			c0.69-0.43,0.79-0.89,0.79-1.2c0-0.36-0.24-0.6-0.69-0.6C151.06,103.94,150.85,104.48,150.85,104.85z"/>
		<path class="st4" d="M159.75,105.43c0,1.79-0.67,4.51-3.03,4.51c-1.4,0-2.14-0.92-2.14-2.58c0-1.81,0.67-4.49,3.03-4.49
			C159,102.87,159.75,103.78,159.75,105.43z M156.24,106.44c-0.07,0.52-0.11,0.93-0.11,1.25c0,0.79,0.23,1.08,0.68,1.08
			c0.66,0,1.02-0.56,1.28-2.41c0.08-0.54,0.12-0.95,0.12-1.26c0-0.8-0.23-1.06-0.68-1.06C156.86,104.04,156.49,104.63,156.24,106.44
			z"/>
		<path class="st4" d="M164.12,104.39c0,0.9-0.58,2.08-1.99,2.08c-0.9,0-1.55-0.6-1.55-1.53c0-0.91,0.61-2.07,1.99-2.07
			C163.47,102.87,164.12,103.46,164.12,104.39z M167.52,103.19l-5.53,6.98l-0.88-0.62l5.53-6.98L167.52,103.19z M161.69,104.92
			c0,0.33,0.12,0.6,0.52,0.6c0.65,0,0.8-0.68,0.8-1.11c0-0.32-0.12-0.59-0.51-0.59C161.81,103.82,161.69,104.55,161.69,104.92z
			 M168.01,107.85c0,0.9-0.58,2.08-1.99,2.08c-0.9,0-1.54-0.59-1.54-1.52c0-0.91,0.6-2.07,1.99-2.07
			C167.37,106.35,168.01,106.93,168.01,107.85z M165.58,108.38c0,0.33,0.12,0.61,0.52,0.61c0.65,0,0.8-0.69,0.8-1.11
			c0-0.33-0.12-0.6-0.51-0.6C165.7,107.29,165.58,108.01,165.58,108.38z"/>
		<path class="st4" d="M176.17,106.54c-0.01,1.46-0.73,3.39-2.96,3.39c-1.41,0-2.22-0.85-2.22-2.26c0-1.48,0.72-3.39,2.96-3.39
			C175.36,104.29,176.18,105.16,176.17,106.54z M172.58,107.77c0,0.7,0.25,1,0.74,1c1.04,0,1.25-1.52,1.25-2.33
			c0.01-0.7-0.24-1-0.73-1C172.79,105.45,172.58,106.96,172.58,107.77z"/>
		<path class="st4" d="M179.23,104.07l-0.05,0.39h1.23l-0.32,1.1h-1.07l-0.51,3.63c-0.24,1.73-1.19,2.34-2.47,2.8l-0.39-1.14
			c0.75-0.29,1.17-0.63,1.3-1.6l0.52-3.69h-0.79l0.15-1.1h0.79l0.07-0.49c0.14-1.02,0.89-1.79,2.18-1.79c0.64,0,1.12,0.2,1.48,0.44
			l-0.55,0.95c-0.27-0.18-0.57-0.22-0.8-0.22C179.54,103.35,179.3,103.56,179.23,104.07z"/>
		<path class="st4" d="M184.02,107.83c0.04,0.7,0.42,0.94,0.94,0.94c0.45,0,0.86-0.16,1.35-0.49l0.56,0.94
			c-0.58,0.42-1.29,0.71-2.11,0.71c-1.55,0-2.31-0.9-2.31-2.25c0-1.44,0.78-3.4,3.01-3.4c1.29,0,1.96,0.65,1.96,1.45
			C187.42,107.22,185.68,107.67,184.02,107.83z M185.85,105.83c0-0.24-0.12-0.49-0.54-0.49c-0.74,0-1.09,0.78-1.22,1.54
			C185.41,106.78,185.85,106.28,185.85,105.83z"/>
		<path class="st4" d="M190.31,104.07l-0.05,0.39h1.23l-0.32,1.1h-1.07l-0.51,3.63c-0.24,1.73-1.19,2.34-2.47,2.8l-0.39-1.14
			c0.75-0.29,1.17-0.63,1.3-1.6l0.52-3.69h-0.79l0.15-1.1h0.79l0.07-0.49c0.14-1.02,0.89-1.79,2.18-1.79c0.64,0,1.12,0.2,1.48,0.44
			l-0.55,0.95c-0.27-0.18-0.57-0.22-0.8-0.22C190.62,103.35,190.38,103.56,190.31,104.07z"/>
		<path class="st4" d="M193.77,104.07l-0.05,0.39h1.23l-0.32,1.1h-1.07l-0.51,3.63c-0.24,1.73-1.19,2.34-2.47,2.8l-0.39-1.14
			c0.75-0.29,1.17-0.63,1.3-1.6l0.52-3.69h-0.79l0.15-1.1h0.79l0.07-0.49c0.14-1.02,0.89-1.79,2.18-1.79c0.64,0,1.12,0.2,1.48,0.44
			l-0.55,0.95c-0.27-0.18-0.57-0.22-0.8-0.22C194.08,103.35,193.84,103.56,193.77,104.07z"/>
		<path class="st4" d="M199.81,106.54c-0.01,1.46-0.73,3.39-2.96,3.39c-1.41,0-2.22-0.85-2.22-2.26c0-1.48,0.72-3.39,2.96-3.39
			C199,104.29,199.82,105.16,199.81,106.54z M196.22,107.77c0,0.7,0.25,1,0.74,1c1.04,0,1.25-1.52,1.25-2.33c0.01-0.7-0.24-1-0.73-1
			C196.43,105.45,196.22,106.96,196.22,107.77z"/>
		<path class="st4" d="M204.43,104.39l-0.45,1.52c-0.16-0.04-0.28-0.07-0.44-0.07c-0.66,0-1.02,0.63-1.31,1.47l-0.35,2.46h-1.55
			l0.74-5.31h1.35l-0.02,0.99c0.36-0.73,0.95-1.14,1.5-1.14C204.11,104.31,204.26,104.34,204.43,104.39z"/>
		<path class="st4" d="M206.44,108c-0.07,0.51,0.05,0.67,0.36,0.67c0.19,0,0.39-0.05,0.6-0.17l0.42,1.04
			c-0.45,0.26-1.01,0.39-1.46,0.39c-1.17-0.01-1.65-0.69-1.48-1.93l0.35-2.45h-0.73l0.15-1.1h0.8l0.33-1.18l1.34-0.15l-0.19,1.33
			h1.2l-0.31,1.1h-1.04L206.44,108z"/>
		<path class="st4" d="M213.01,104.15c0,1.97-2.29,1.64-2.29,2.86c0,0.06,0,0.15,0.02,0.22l-1.37,0.21
			c-0.05-0.15-0.08-0.34-0.08-0.48c0-1.72,2.08-1.55,2.08-2.61c0-0.28-0.21-0.44-0.59-0.44c-0.41,0-0.84,0.22-1.26,0.62l-0.89-0.81
			c0.65-0.66,1.43-1.05,2.43-1.05C212.38,102.67,213.01,103.34,213.01,104.15z M210.9,108.93c0,0.54-0.44,1-1,1
			c-0.47,0-0.79-0.34-0.79-0.82c0-0.53,0.44-0.99,1-0.99C210.57,108.12,210.9,108.46,210.9,108.93z"/>
	</g>
	<g>
		<path class="st2" d="M242.93,34.17c0,1.05-0.52,1.84-2.63,3.76h2.77l-0.16,1.21h-4.4v-1.12c2.27-2.24,2.8-2.85,2.8-3.69
			c0-0.55-0.34-0.88-0.87-0.88c-0.49,0-0.83,0.22-1.22,0.7l-0.94-0.74c0.54-0.71,1.31-1.17,2.32-1.17
			C242.11,32.24,242.93,33.12,242.93,34.17z"/>
		<path class="st2" d="M248.87,35.76c0,2.26-0.89,3.54-2.55,3.54s-2.55-1.28-2.55-3.54c0-2.27,0.89-3.53,2.55-3.53
			S248.87,33.5,248.87,35.76z M245.4,35.76c0,1.79,0.27,2.37,0.93,2.37c0.65,0,0.93-0.54,0.93-2.37c0-1.84-0.28-2.36-0.93-2.36
			C245.67,33.41,245.4,33.98,245.4,35.76z"/>
		<path class="st2" d="M253.09,34.04c0,1.1-0.78,1.8-1.78,1.8c-0.99,0-1.78-0.7-1.78-1.8c0-1.1,0.79-1.8,1.78-1.8
			C252.32,32.24,253.09,32.94,253.09,34.04z M250.67,34.04c0,0.42,0.13,0.85,0.65,0.85s0.64-0.42,0.64-0.85
			c0-0.42-0.12-0.85-0.64-0.85S250.67,33.61,250.67,34.04z M256.35,32.56l-4.63,6.98l-0.97-0.62l4.63-6.98L256.35,32.56z
			 M257.54,37.5c0,1.11-0.78,1.8-1.78,1.8c-1,0-1.79-0.69-1.79-1.8c0-1.1,0.79-1.79,1.79-1.79C256.76,35.71,257.54,36.4,257.54,37.5
			z M255.11,37.5c0,0.42,0.13,0.86,0.65,0.86c0.52,0,0.64-0.43,0.64-0.86c0-0.42-0.12-0.84-0.64-0.84
			C255.24,36.66,255.11,37.08,255.11,37.5z"/>
	</g>
	<g>
		<path class="st6" d="M236.84,14.33c0,1.72-0.7,2.84-1.81,2.84c-0.45,0-0.81-0.19-1.1-0.55v2.43l-1.51,0.16v-7.52h1.34l0.07,0.59
			c0.36-0.54,0.81-0.76,1.33-0.76C236.29,11.52,236.84,12.54,236.84,14.33z M235.29,14.35c0-1.39-0.25-1.72-0.64-1.72
			c-0.29,0-0.53,0.23-0.72,0.58v2.41c0.18,0.28,0.39,0.44,0.65,0.44C235,16.05,235.29,15.63,235.29,14.35z"/>
		<path class="st6" d="M240.7,11.62l-0.25,1.45c-0.13-0.04-0.25-0.06-0.4-0.06c-0.56,0-0.77,0.48-0.92,1.19v2.8h-1.51v-5.31h1.32
			l0.11,0.91c0.24-0.67,0.63-1.06,1.2-1.06C240.42,11.54,240.56,11.57,240.7,11.62z"/>
		<path class="st6" d="M244.94,16.14l-0.31,0.99c-0.57-0.05-0.95-0.24-1.15-0.73c-0.36,0.55-0.86,0.76-1.39,0.76
			c-0.92,0-1.5-0.66-1.5-1.66c0-1.15,0.76-1.78,2.19-1.78h0.39v-0.27c0-0.65-0.19-0.85-0.72-0.85c-0.35,0-0.74,0.1-1.2,0.26
			l-0.33-0.95c0.57-0.26,1.24-0.4,1.81-0.4c1.3,0,1.91,0.6,1.91,1.86v2.18C244.64,15.91,244.72,16.05,244.94,16.14z M243.17,15.58
			v-1.02h-0.25c-0.58,0-0.85,0.26-0.85,0.81c0,0.47,0.18,0.72,0.48,0.72C242.83,16.09,243.04,15.9,243.17,15.58z"/>
		<path class="st6" d="M249.35,12.17l-0.62,0.84c-0.29-0.22-0.54-0.34-0.84-0.34c-0.55,0-0.87,0.39-0.87,1.71
			c0,1.28,0.36,1.61,0.87,1.61c0.29,0,0.51-0.11,0.81-0.32l0.66,0.88c-0.42,0.38-0.93,0.62-1.57,0.62c-1.46,0-2.35-1.04-2.35-2.78
			c0-1.77,0.9-2.87,2.33-2.87C248.42,11.52,248.92,11.74,249.35,12.17z"/>
		<path class="st6" d="M252.83,16.74c-0.36,0.29-0.88,0.42-1.3,0.42c-1.08,0-1.58-0.67-1.58-1.67v-2.76h-0.59v-1.05h0.59v-1.16
			l1.51-0.17v1.33h1.05l-0.16,1.05h-0.89v2.74c0,0.33,0.14,0.49,0.41,0.49c0.16,0,0.29-0.05,0.46-0.14L252.83,16.74z"/>
		<path class="st6" d="M254.83,9.8c0,0.49-0.35,0.86-0.86,0.86c-0.52,0-0.87-0.37-0.87-0.86c0-0.49,0.35-0.86,0.87-0.86
			C254.49,8.94,254.83,9.31,254.83,9.8z M254.73,16.99h-1.51v-5.31h1.51V16.99z"/>
		<path class="st6" d="M259.4,12.17l-0.62,0.84c-0.29-0.22-0.54-0.34-0.84-0.34c-0.55,0-0.87,0.39-0.87,1.71
			c0,1.28,0.36,1.61,0.87,1.61c0.29,0,0.51-0.11,0.81-0.32l0.66,0.88c-0.42,0.38-0.93,0.62-1.57,0.62c-1.46,0-2.35-1.04-2.35-2.78
			c0-1.77,0.9-2.87,2.33-2.87C258.46,11.52,258.97,11.74,259.4,12.17z"/>
		<path class="st6" d="M263.86,14.79h-2.84c0.08,1.01,0.43,1.27,0.96,1.27c0.41,0,0.73-0.14,1.12-0.44l0.61,0.82
			c-0.44,0.42-1.05,0.73-1.84,0.73c-1.57,0-2.36-1.09-2.36-2.79c0-1.68,0.76-2.86,2.21-2.86c1.32,0,2.17,0.92,2.17,2.72
			C263.89,14.41,263.87,14.64,263.86,14.79z M262.42,13.81c-0.01-0.85-0.18-1.29-0.68-1.29c-0.42,0-0.67,0.3-0.72,1.37h1.4V13.81z"
			/>
	</g>
	<g>
		<path class="st6" d="M82.06,77.77v3.87h-1.48v-3.71c0-0.48-0.12-0.63-0.33-0.63c-0.24,0-0.43,0.22-0.63,0.6v3.74h-1.47v-3.71
			c0-0.48-0.13-0.63-0.33-0.63c-0.25,0-0.44,0.22-0.63,0.6v3.74H75.7v-5.31h1.32l0.09,0.64c0.36-0.52,0.77-0.81,1.32-0.81
			c0.51,0,0.9,0.31,1.08,0.85c0.36-0.55,0.78-0.85,1.35-0.85C81.58,76.16,82.06,76.75,82.06,77.77z"/>
		<path class="st6" d="M87.38,78.98c0,1.8-0.87,2.82-2.29,2.82c-1.41,0-2.29-0.94-2.29-2.83c0-1.82,0.87-2.82,2.29-2.82
			C86.5,76.16,87.38,77.09,87.38,78.98z M84.36,78.97c0,1.29,0.23,1.72,0.73,1.72c0.5,0,0.74-0.45,0.74-1.71
			c0-1.28-0.24-1.71-0.74-1.71C84.6,77.28,84.36,77.73,84.36,78.97z"/>
		<path class="st6" d="M91.23,76.26l-0.25,1.45c-0.13-0.04-0.25-0.06-0.4-0.06c-0.56,0-0.77,0.48-0.92,1.19v2.8h-1.51v-5.31h1.32
			l0.11,0.91c0.24-0.67,0.63-1.06,1.2-1.06C90.95,76.18,91.09,76.21,91.23,76.26z"/>
		<path class="st6" d="M95.73,79.42h-2.84c0.08,1.01,0.43,1.27,0.96,1.27c0.41,0,0.73-0.14,1.12-0.44l0.61,0.82
			c-0.44,0.42-1.05,0.73-1.84,0.73c-1.57,0-2.36-1.09-2.36-2.79c0-1.68,0.76-2.86,2.21-2.86c1.32,0,2.17,0.92,2.17,2.72
			C95.76,79.04,95.74,79.27,95.73,79.42z M94.29,78.44c-0.01-0.85-0.18-1.29-0.68-1.29c-0.42,0-0.67,0.3-0.72,1.37h1.4V78.44z"/>
		<path class="st6" d="M101.54,76.26l-0.25,1.45c-0.13-0.04-0.25-0.06-0.4-0.06c-0.56,0-0.77,0.48-0.92,1.19v2.8h-1.51v-5.31h1.32
			l0.11,0.91c0.24-0.67,0.63-1.06,1.2-1.06C101.26,76.18,101.4,76.21,101.54,76.26z"/>
		<path class="st6" d="M106.04,79.42h-2.84c0.08,1.01,0.43,1.27,0.96,1.27c0.41,0,0.73-0.14,1.12-0.44l0.61,0.82
			c-0.44,0.42-1.05,0.73-1.84,0.73c-1.57,0-2.36-1.09-2.36-2.79c0-1.68,0.76-2.86,2.21-2.86c1.32,0,2.17,0.92,2.17,2.72
			C106.07,79.04,106.05,79.27,106.04,79.42z M104.6,78.44c-0.01-0.85-0.18-1.29-0.68-1.29c-0.42,0-0.67,0.3-0.72,1.37h1.4V78.44z"/>
		<path class="st6" d="M110.19,76.81l-0.55,0.82c-0.36-0.24-0.7-0.39-1.06-0.39c-0.35,0-0.56,0.17-0.56,0.45
			c0,0.3,0.16,0.44,0.95,0.75c0.89,0.33,1.38,0.76,1.38,1.64c0,1.08-0.89,1.73-2.09,1.73c-0.8,0-1.49-0.3-1.96-0.78l0.71-0.79
			c0.35,0.28,0.76,0.5,1.18,0.5c0.39,0,0.62-0.2,0.62-0.53c0-0.37-0.16-0.53-0.94-0.82c-0.95-0.36-1.34-0.82-1.34-1.59
			c0-0.93,0.7-1.64,1.92-1.64C109.15,76.16,109.75,76.41,110.19,76.81z"/>
		<path class="st6" d="M115.12,79.42h-2.84c0.08,1.01,0.43,1.27,0.96,1.27c0.41,0,0.73-0.14,1.12-0.44l0.61,0.82
			c-0.44,0.42-1.05,0.73-1.84,0.73c-1.57,0-2.36-1.09-2.36-2.79c0-1.68,0.76-2.86,2.21-2.86c1.32,0,2.17,0.92,2.17,2.72
			C115.15,79.04,115.13,79.27,115.12,79.42z M113.68,78.44c-0.01-0.85-0.18-1.29-0.68-1.29c-0.42,0-0.67,0.3-0.72,1.37h1.4V78.44z"
			/>
		<path class="st6" d="M119.93,80.78l-0.31,0.99c-0.57-0.05-0.95-0.24-1.15-0.73c-0.36,0.55-0.86,0.76-1.39,0.76
			c-0.92,0-1.5-0.66-1.5-1.66c0-1.15,0.76-1.78,2.19-1.78h0.39v-0.27c0-0.65-0.19-0.85-0.72-0.85c-0.35,0-0.74,0.1-1.2,0.26
			l-0.33-0.95c0.57-0.26,1.24-0.4,1.81-0.4c1.3,0,1.91,0.6,1.91,1.86v2.18C119.63,80.55,119.71,80.69,119.93,80.78z M118.16,80.22
			V79.2h-0.25c-0.58,0-0.85,0.26-0.85,0.81c0,0.47,0.18,0.72,0.48,0.72C117.81,80.73,118.02,80.54,118.16,80.22z"/>
		<path class="st6" d="M123.72,76.26l-0.25,1.45c-0.13-0.04-0.25-0.06-0.4-0.06c-0.56,0-0.77,0.48-0.92,1.19v2.8h-1.51v-5.31h1.32
			l0.11,0.91c0.24-0.67,0.63-1.06,1.2-1.06C123.44,76.18,123.58,76.21,123.72,76.26z"/>
		<path class="st6" d="M127.78,76.81l-0.62,0.84c-0.29-0.22-0.54-0.34-0.84-0.34c-0.55,0-0.87,0.39-0.87,1.71
			c0,1.28,0.36,1.61,0.87,1.61c0.29,0,0.51-0.11,0.81-0.32l0.66,0.88c-0.42,0.38-0.93,0.62-1.57,0.62c-1.46,0-2.35-1.04-2.35-2.78
			c0-1.77,0.9-2.87,2.33-2.87C126.84,76.16,127.35,76.38,127.78,76.81z"/>
		<path class="st6" d="M132.35,77.77v3.87h-1.51v-3.7c0-0.48-0.13-0.63-0.35-0.63c-0.25,0-0.48,0.24-0.71,0.64v3.69h-1.51v-7.42
			l1.51-0.15v2.84c0.36-0.5,0.76-0.75,1.29-0.75C131.87,76.16,132.35,76.75,132.35,77.77z"/>
		<path class="st6" d="M139.69,78.96c0,1.72-0.7,2.84-1.81,2.84c-0.45,0-0.81-0.19-1.1-0.55v2.43l-1.51,0.16v-7.52h1.34l0.07,0.59
			c0.36-0.54,0.81-0.76,1.33-0.76C139.14,76.16,139.69,77.18,139.69,78.96z M138.14,78.98c0-1.39-0.25-1.72-0.64-1.72
			c-0.29,0-0.53,0.23-0.72,0.58v2.41c0.18,0.28,0.39,0.44,0.65,0.44C137.85,80.69,138.14,80.27,138.14,78.98z"/>
		<path class="st6" d="M143.55,76.26l-0.25,1.45c-0.13-0.04-0.25-0.06-0.4-0.06c-0.56,0-0.77,0.48-0.92,1.19v2.8h-1.51v-5.31h1.32
			l0.11,0.91c0.24-0.67,0.63-1.06,1.2-1.06C143.27,76.18,143.41,76.21,143.55,76.26z"/>
		<path class="st6" d="M148.28,78.98c0,1.8-0.87,2.82-2.29,2.82c-1.41,0-2.29-0.94-2.29-2.83c0-1.82,0.87-2.82,2.29-2.82
			C147.4,76.16,148.28,77.09,148.28,78.98z M145.26,78.97c0,1.29,0.23,1.72,0.73,1.72c0.5,0,0.74-0.45,0.74-1.71
			c0-1.28-0.24-1.71-0.74-1.71C145.5,77.28,145.26,77.73,145.26,78.97z"/>
		<path class="st6" d="M153.47,78.98c0,1.72-0.68,2.82-1.82,2.82c-0.5,0-0.91-0.25-1.19-0.67l-0.07,0.5h-1.34v-7.42l1.51-0.16v2.78
			c0.28-0.42,0.72-0.68,1.25-0.68C152.89,76.16,153.47,77.13,153.47,78.98z M151.92,78.98c0-1.44-0.27-1.72-0.64-1.72
			c-0.28,0-0.52,0.24-0.72,0.59v2.37c0.16,0.29,0.38,0.48,0.65,0.48C151.63,80.7,151.92,80.32,151.92,78.98z"/>
		<path class="st6" d="M154.2,80.4v-6.19l1.51-0.16v6.28c0,0.18,0.07,0.27,0.23,0.27c0.08,0,0.15-0.01,0.2-0.03l0.28,1.04
			c-0.2,0.1-0.52,0.19-0.86,0.19C154.7,81.8,154.2,81.26,154.2,80.4z"/>
		<path class="st6" d="M160.96,79.42h-2.84c0.08,1.01,0.43,1.27,0.96,1.27c0.41,0,0.73-0.14,1.12-0.44l0.61,0.82
			c-0.44,0.42-1.05,0.73-1.84,0.73c-1.57,0-2.36-1.09-2.36-2.79c0-1.68,0.76-2.86,2.21-2.86c1.32,0,2.17,0.92,2.17,2.72
			C160.99,79.04,160.97,79.27,160.96,79.42z M159.52,78.44c-0.01-0.85-0.18-1.29-0.68-1.29c-0.42,0-0.67,0.3-0.72,1.37h1.4V78.44z"
			/>
		<path class="st6" d="M168.07,77.77v3.87h-1.48v-3.71c0-0.48-0.12-0.63-0.33-0.63c-0.24,0-0.43,0.22-0.63,0.6v3.74h-1.47v-3.71
			c0-0.48-0.13-0.63-0.33-0.63c-0.25,0-0.44,0.22-0.63,0.6v3.74h-1.49v-5.31h1.32l0.09,0.64c0.36-0.52,0.77-0.81,1.32-0.81
			c0.51,0,0.9,0.31,1.08,0.85c0.36-0.55,0.78-0.85,1.35-0.85C167.59,76.16,168.07,76.75,168.07,77.77z"/>
		<path class="st6" d="M172.42,76.81l-0.55,0.82c-0.36-0.24-0.7-0.39-1.06-0.39c-0.35,0-0.56,0.17-0.56,0.45
			c0,0.3,0.16,0.44,0.95,0.75c0.89,0.33,1.38,0.76,1.38,1.64c0,1.08-0.89,1.73-2.09,1.73c-0.8,0-1.49-0.3-1.96-0.78l0.71-0.79
			c0.35,0.28,0.76,0.5,1.18,0.5c0.39,0,0.62-0.2,0.62-0.53c0-0.37-0.16-0.53-0.94-0.82c-0.95-0.36-1.34-0.82-1.34-1.59
			c0-0.93,0.7-1.64,1.92-1.64C171.38,76.16,171.98,76.41,172.42,76.81z"/>
	</g>
	<g>
		<path class="st6" d="M191.52,76.81l-0.55,0.82c-0.36-0.24-0.7-0.39-1.06-0.39c-0.35,0-0.56,0.17-0.56,0.45
			c0,0.3,0.16,0.44,0.95,0.75c0.89,0.33,1.38,0.76,1.38,1.64c0,1.08-0.89,1.73-2.09,1.73c-0.8,0-1.49-0.3-1.96-0.78l0.71-0.79
			c0.35,0.28,0.76,0.5,1.18,0.5c0.39,0,0.62-0.2,0.62-0.53c0-0.37-0.16-0.53-0.94-0.82c-0.95-0.36-1.34-0.82-1.34-1.59
			c0-0.93,0.7-1.64,1.92-1.64C190.48,76.16,191.08,76.41,191.52,76.81z"/>
		<path class="st6" d="M196.68,78.98c0,1.8-0.87,2.82-2.29,2.82c-1.41,0-2.29-0.94-2.29-2.83c0-1.82,0.87-2.82,2.29-2.82
			C195.8,76.16,196.68,77.09,196.68,78.98z M193.66,78.97c0,1.29,0.23,1.72,0.73,1.72s0.74-0.45,0.74-1.71
			c0-1.28-0.24-1.71-0.74-1.71C193.9,77.28,193.66,77.73,193.66,78.97z"/>
		<path class="st6" d="M199.16,75.77v0.56h1.08l-0.16,1.05h-0.92v4.26h-1.51v-4.26H197v-1.05h0.65v-0.52c0-1.04,0.61-1.75,1.82-1.75
			c0.52,0,0.95,0.14,1.31,0.33l-0.4,0.95c-0.25-0.11-0.47-0.17-0.68-0.17C199.32,75.17,199.16,75.36,199.16,75.77z"/>
		<path class="st6" d="M203.61,81.38c-0.36,0.29-0.88,0.42-1.3,0.42c-1.08,0-1.58-0.67-1.58-1.67v-2.76h-0.59v-1.05h0.59v-1.16
			l1.51-0.17v1.33h1.05l-0.16,1.05h-0.89v2.74c0,0.33,0.14,0.49,0.41,0.49c0.16,0,0.29-0.05,0.46-0.14L203.61,81.38z"/>
		<path class="st6" d="M209.13,81.63h-1.76l-0.56-3.95l-0.55,3.95h-1.75l-0.95-5.31h1.46l0.45,4.17l0.66-4.17h1.42l0.62,4.17
			l0.48-4.17h1.41L209.13,81.63z"/>
		<path class="st6" d="M214.67,80.78l-0.31,0.99c-0.57-0.05-0.95-0.24-1.15-0.73c-0.36,0.55-0.86,0.76-1.39,0.76
			c-0.92,0-1.5-0.66-1.5-1.66c0-1.15,0.76-1.78,2.19-1.78h0.39v-0.27c0-0.65-0.19-0.85-0.72-0.85c-0.35,0-0.74,0.1-1.2,0.26
			l-0.33-0.95c0.57-0.26,1.24-0.4,1.81-0.4c1.3,0,1.91,0.6,1.91,1.86v2.18C214.37,80.55,214.45,80.69,214.67,80.78z M212.9,80.22
			V79.2h-0.25c-0.58,0-0.85,0.26-0.85,0.81c0,0.47,0.18,0.72,0.48,0.72C212.55,80.73,212.76,80.54,212.9,80.22z"/>
		<path class="st6" d="M218.46,76.26l-0.25,1.45c-0.13-0.04-0.25-0.06-0.4-0.06c-0.56,0-0.77,0.48-0.92,1.19v2.8h-1.51v-5.31h1.32
			l0.11,0.91c0.24-0.67,0.63-1.06,1.2-1.06C218.18,76.18,218.32,76.21,218.46,76.26z"/>
		<path class="st6" d="M222.96,79.42h-2.84c0.08,1.01,0.43,1.27,0.96,1.27c0.41,0,0.73-0.14,1.12-0.44l0.61,0.82
			c-0.44,0.42-1.05,0.73-1.84,0.73c-1.57,0-2.36-1.09-2.36-2.79c0-1.68,0.76-2.86,2.21-2.86c1.32,0,2.17,0.92,2.17,2.72
			C222.99,79.04,222.97,79.27,222.96,79.42z M221.52,78.44c-0.01-0.85-0.18-1.29-0.68-1.29c-0.42,0-0.67,0.3-0.72,1.37h1.4V78.44z"
			/>
		<path class="st6" d="M229.83,79.42h-2.84c0.08,1.01,0.43,1.27,0.96,1.27c0.41,0,0.73-0.14,1.12-0.44l0.61,0.82
			c-0.44,0.42-1.05,0.73-1.84,0.73c-1.57,0-2.36-1.09-2.36-2.79c0-1.68,0.76-2.86,2.21-2.86c1.32,0,2.17,0.92,2.17,2.72
			C229.86,79.04,229.84,79.27,229.83,79.42z M228.39,78.44c-0.01-0.85-0.18-1.29-0.68-1.29c-0.42,0-0.67,0.3-0.72,1.37h1.4V78.44z"
			/>
		<path class="st6" d="M234.66,77.77v3.87h-1.51v-3.7c0-0.48-0.13-0.63-0.35-0.63c-0.25,0-0.48,0.24-0.71,0.64v3.69h-1.51v-5.31
			h1.32l0.11,0.63c0.36-0.52,0.78-0.8,1.37-0.8C234.18,76.16,234.66,76.75,234.66,77.77z"/>
		<path class="st6" d="M239.9,76.62c-0.3,0.15-0.72,0.21-1.31,0.21c0.6,0.27,0.9,0.68,0.9,1.38c0,1.04-0.75,1.77-1.99,1.77
			c-0.19,0-0.36-0.02-0.51-0.06c-0.11,0.07-0.17,0.2-0.17,0.34c0,0.2,0.09,0.35,0.53,0.35h0.59c1.18,0,1.87,0.62,1.87,1.5
			c0,1.05-0.85,1.74-2.45,1.74c-1.8,0-2.25-0.66-2.25-1.7h1.35c0,0.48,0.16,0.71,0.91,0.71c0.72,0,0.93-0.27,0.93-0.64
			c0-0.38-0.22-0.58-0.7-0.58h-0.5c-1.09,0-1.51-0.44-1.51-1.03c0-0.41,0.24-0.76,0.57-0.99c-0.58-0.35-0.84-0.8-0.84-1.52
			c0-1.21,0.82-1.93,2.13-1.92c0.99,0.01,1.54-0.31,2.09-0.64L239.9,76.62z M236.8,78.08c0,0.65,0.24,0.93,0.63,0.93
			c0.41,0,0.63-0.25,0.63-0.96c0-0.65-0.22-0.89-0.62-0.89C237.03,77.16,236.8,77.43,236.8,78.08z"/>
		<path class="st6" d="M241.96,74.44c0,0.49-0.35,0.86-0.86,0.86c-0.52,0-0.87-0.37-0.87-0.86c0-0.49,0.35-0.86,0.87-0.86
			C241.61,73.58,241.96,73.95,241.96,74.44z M241.85,81.63h-1.51v-5.31h1.51V81.63z"/>
		<path class="st6" d="M246.91,77.77v3.87h-1.51v-3.7c0-0.48-0.13-0.63-0.35-0.63c-0.25,0-0.48,0.24-0.71,0.64v3.69h-1.51v-5.31
			h1.32l0.11,0.63c0.36-0.52,0.78-0.8,1.37-0.8C246.43,76.16,246.91,76.75,246.91,77.77z"/>
		<path class="st6" d="M251.99,79.42h-2.84c0.08,1.01,0.43,1.27,0.96,1.27c0.41,0,0.73-0.14,1.12-0.44l0.61,0.82
			c-0.44,0.42-1.05,0.73-1.84,0.73c-1.57,0-2.36-1.09-2.36-2.79c0-1.68,0.76-2.86,2.21-2.86c1.32,0,2.17,0.92,2.17,2.72
			C252.02,79.04,252,79.27,251.99,79.42z M250.55,78.44c-0.01-0.85-0.18-1.29-0.68-1.29c-0.42,0-0.67,0.3-0.72,1.37h1.4V78.44z"/>
		<path class="st6" d="M256.88,79.42h-2.84c0.08,1.01,0.43,1.27,0.96,1.27c0.41,0,0.73-0.14,1.12-0.44l0.61,0.82
			c-0.44,0.42-1.05,0.73-1.84,0.73c-1.57,0-2.36-1.09-2.36-2.79c0-1.68,0.76-2.86,2.21-2.86c1.32,0,2.17,0.92,2.17,2.72
			C256.91,79.04,256.89,79.27,256.88,79.42z M255.44,78.44c-0.01-0.85-0.18-1.29-0.68-1.29c-0.42,0-0.67,0.3-0.72,1.37h1.4V78.44z"
			/>
		<path class="st6" d="M260.71,76.26l-0.25,1.45c-0.13-0.04-0.25-0.06-0.4-0.06c-0.56,0-0.77,0.48-0.92,1.19v2.8h-1.51v-5.31h1.32
			l0.11,0.91c0.24-0.67,0.63-1.06,1.2-1.06C260.43,76.18,260.57,76.21,260.71,76.26z"/>
		<path class="st6" d="M262.76,74.44c0,0.49-0.35,0.86-0.86,0.86c-0.52,0-0.87-0.37-0.87-0.86c0-0.49,0.35-0.86,0.87-0.86
			C262.41,73.58,262.76,73.95,262.76,74.44z M262.65,81.63h-1.51v-5.31h1.51V81.63z"/>
		<path class="st6" d="M267.71,77.77v3.87h-1.51v-3.7c0-0.48-0.13-0.63-0.35-0.63c-0.25,0-0.48,0.24-0.71,0.64v3.69h-1.51v-5.31
			h1.32l0.11,0.63c0.36-0.52,0.78-0.8,1.37-0.8C267.23,76.16,267.71,76.75,267.71,77.77z"/>
		<path class="st6" d="M272.95,76.62c-0.3,0.15-0.72,0.21-1.31,0.21c0.6,0.27,0.9,0.68,0.9,1.38c0,1.04-0.75,1.77-1.99,1.77
			c-0.19,0-0.36-0.02-0.51-0.06c-0.11,0.07-0.17,0.2-0.17,0.34c0,0.2,0.09,0.35,0.53,0.35h0.59c1.18,0,1.87,0.62,1.87,1.5
			c0,1.05-0.85,1.74-2.45,1.74c-1.8,0-2.25-0.66-2.25-1.7h1.35c0,0.48,0.16,0.71,0.91,0.71c0.72,0,0.93-0.27,0.93-0.64
			c0-0.38-0.22-0.58-0.7-0.58h-0.5c-1.09,0-1.51-0.44-1.51-1.03c0-0.41,0.24-0.76,0.57-0.99c-0.58-0.35-0.84-0.8-0.84-1.52
			c0-1.21,0.82-1.93,2.13-1.92c0.99,0.01,1.54-0.31,2.09-0.64L272.95,76.62z M269.85,78.08c0,0.65,0.24,0.93,0.63,0.93
			c0.41,0,0.63-0.25,0.63-0.96c0-0.65-0.22-0.89-0.62-0.89C270.08,77.16,269.85,77.43,269.85,78.08z"/>
	</g>
	<g>
		<path class="st8" d="M3.95,11c-0.4,0.28-0.96,0.42-1.44,0.42c-1.17-0.01-1.74-0.67-1.74-1.92V7.05H0.02v-1.1h0.75V4.8l1.58-0.18
			v1.33h1.22L3.4,7.05H2.35v2.44c0,0.51,0.17,0.69,0.5,0.69c0.18,0,0.36-0.05,0.57-0.18L3.95,11z"/>
		<path class="st8" d="M9.06,7.38v3.88H7.48V7.65c0-0.56-0.2-0.71-0.5-0.71c-0.35,0-0.64,0.25-0.92,0.68v3.64H4.48V3.84l1.58-0.16
			v2.83c0.43-0.48,0.91-0.73,1.53-0.73C8.51,5.78,9.06,6.37,9.06,7.38z"/>
		<path class="st8" d="M14.85,9.06h-3.28c0.1,0.95,0.55,1.21,1.2,1.21c0.43,0,0.81-0.15,1.27-0.47l0.65,0.88
			c-0.53,0.42-1.21,0.74-2.07,0.74c-1.77,0-2.67-1.14-2.67-2.8c0-1.59,0.87-2.85,2.48-2.85c1.52,0,2.45,1,2.45,2.72
			C14.88,8.67,14.87,8.91,14.85,9.06z M13.33,8.05c-0.01-0.72-0.23-1.22-0.86-1.22c-0.53,0-0.83,0.33-0.91,1.29h1.77V8.05z"/>
		<path class="st8" d="M20.69,8.61c0,1.7-0.98,2.82-2.6,2.82c-1.61,0-2.6-1.04-2.6-2.83c0-1.7,0.98-2.82,2.6-2.82
			S20.69,6.82,20.69,8.61z M17.13,8.6c0,1.18,0.32,1.67,0.96,1.67s0.96-0.51,0.96-1.66c0-1.18-0.32-1.67-0.96-1.67
			S17.13,7.45,17.13,8.6z"/>
		<path class="st8" d="M25.04,5.87L24.79,7.4c-0.17-0.04-0.3-0.07-0.48-0.07c-0.65,0-0.93,0.48-1.1,1.28v2.65h-1.58V5.95h1.38
			l0.13,1.02c0.24-0.73,0.76-1.17,1.37-1.17C24.71,5.8,24.87,5.82,25.04,5.87z"/>
		<path class="st8" d="M30.14,9.06h-3.28c0.1,0.95,0.55,1.21,1.2,1.21c0.43,0,0.81-0.15,1.27-0.47l0.65,0.88
			c-0.53,0.42-1.21,0.74-2.07,0.74c-1.77,0-2.67-1.14-2.67-2.8c0-1.59,0.87-2.85,2.48-2.85c1.52,0,2.45,1,2.45,2.72
			C30.17,8.67,30.16,8.91,30.14,9.06z M28.62,8.05c-0.01-0.72-0.23-1.22-0.86-1.22c-0.53,0-0.83,0.33-0.91,1.29h1.77V8.05z"/>
		<path class="st8" d="M34.41,11c-0.4,0.28-0.96,0.42-1.44,0.42c-1.17-0.01-1.74-0.67-1.74-1.92V7.05h-0.75v-1.1h0.75V4.8l1.58-0.18
			v1.33h1.22l-0.17,1.1h-1.05v2.44c0,0.51,0.17,0.69,0.5,0.69c0.18,0,0.36-0.05,0.57-0.18L34.41,11z"/>
		<path class="st8" d="M36.66,4.05c0,0.51-0.39,0.9-0.94,0.9c-0.55,0-0.93-0.39-0.93-0.9s0.38-0.9,0.93-0.9
			C36.27,3.15,36.66,3.54,36.66,4.05z M36.52,11.25h-1.58V5.95h1.58V11.25z"/>
		<path class="st8" d="M41.88,6.43L41.2,7.37c-0.34-0.26-0.65-0.38-1.01-0.38c-0.68,0-1.07,0.46-1.07,1.65
			c0,1.18,0.42,1.54,1.05,1.54c0.38,0,0.64-0.12,1.02-0.36l0.69,0.98c-0.49,0.39-1.06,0.63-1.79,0.63c-1.63,0-2.63-1.1-2.63-2.78
			c0-1.69,1.01-2.87,2.6-2.87C40.8,5.78,41.37,6,41.88,6.43z"/>
		<path class="st8" d="M47.13,10.36l-0.33,1.03c-0.62-0.05-1.03-0.24-1.28-0.76c-0.38,0.58-0.97,0.79-1.6,0.79
			c-1.06,0-1.73-0.69-1.73-1.66c0-1.16,0.88-1.79,2.49-1.79h0.54V7.75c0-0.63-0.25-0.82-0.9-0.82c-0.34,0-0.86,0.1-1.39,0.28
			l-0.36-1.04c0.67-0.25,1.4-0.39,2-0.39c1.54,0,2.2,0.65,2.2,1.88v2.06C46.77,10.12,46.88,10.27,47.13,10.36z M45.22,9.79V8.85
			h-0.39c-0.72,0-1.07,0.25-1.07,0.78c0,0.42,0.23,0.67,0.62,0.67C44.74,10.29,45.03,10.1,45.22,9.79z"/>
		<path class="st8" d="M47.98,9.9V3.84l1.58-0.17v6.18c0,0.22,0.08,0.33,0.27,0.33c0.11,0,0.19-0.02,0.26-0.05l0.31,1.12
			c-0.24,0.1-0.58,0.18-0.96,0.18C48.52,11.42,47.98,10.87,47.98,9.9z"/>
		<path class="st8" d="M11.51,20.59c0,1.64-0.8,2.84-2.11,2.84c-0.52,0-0.96-0.18-1.29-0.56v2.44l-1.58,0.17v-7.53h1.39L8,18.54
			c0.44-0.55,1.01-0.76,1.5-0.76C10.9,17.78,11.51,18.87,11.51,20.59z M9.87,20.61c0-1.32-0.32-1.67-0.87-1.67
			c-0.34,0-0.66,0.23-0.89,0.62v2.24c0.22,0.32,0.48,0.47,0.81,0.47C9.51,22.26,9.87,21.79,9.87,20.61z"/>
		<path class="st8" d="M15.91,17.87l-0.25,1.53c-0.17-0.04-0.3-0.07-0.48-0.07c-0.65,0-0.93,0.48-1.1,1.28v2.65H12.5v-5.31h1.38
			l0.13,1.02c0.24-0.73,0.76-1.17,1.37-1.17C15.58,17.8,15.74,17.82,15.91,17.87z"/>
		<path class="st8" d="M21.31,20.61c0,1.7-0.98,2.82-2.6,2.82c-1.61,0-2.6-1.04-2.6-2.83c0-1.7,0.98-2.82,2.6-2.82
			S21.31,18.82,21.31,20.61z M17.75,20.6c0,1.18,0.32,1.67,0.96,1.67s0.96-0.51,0.96-1.66c0-1.18-0.32-1.67-0.96-1.67
			S17.75,19.45,17.75,20.6z"/>
		<path class="st8" d="M27.23,20.61c0,1.64-0.79,2.82-2.11,2.82c-0.59,0-1.07-0.25-1.39-0.68l-0.08,0.51h-1.4v-7.42l1.58-0.17v2.82
			c0.31-0.43,0.85-0.71,1.4-0.71C26.54,17.78,27.23,18.83,27.23,20.61z M25.59,20.61c0-1.35-0.36-1.67-0.85-1.67
			c-0.38,0-0.68,0.23-0.91,0.62v2.2c0.2,0.33,0.49,0.52,0.84,0.52C25.21,22.27,25.59,21.84,25.59,20.61z"/>
		<path class="st8" d="M28.17,21.9v-6.07l1.58-0.17v6.18c0,0.22,0.08,0.33,0.27,0.33c0.11,0,0.19-0.02,0.26-0.05l0.31,1.12
			c-0.24,0.1-0.58,0.18-0.96,0.18C28.71,23.42,28.17,22.87,28.17,21.9z"/>
		<path class="st8" d="M35.69,21.06h-3.28c0.1,0.95,0.55,1.21,1.2,1.21c0.43,0,0.81-0.15,1.27-0.47l0.65,0.88
			c-0.53,0.42-1.21,0.74-2.07,0.74c-1.77,0-2.67-1.14-2.67-2.8c0-1.59,0.87-2.85,2.48-2.85c1.52,0,2.45,1,2.45,2.72
			C35.72,20.67,35.71,20.91,35.69,21.06z M34.17,20.05c-0.01-0.72-0.23-1.22-0.86-1.22c-0.53,0-0.83,0.33-0.91,1.29h1.77V20.05z"/>
		<path class="st8" d="M43.89,19.38v3.88h-1.58v-3.61c0-0.56-0.21-0.71-0.45-0.71c-0.34,0-0.58,0.25-0.81,0.69v3.63h-1.58v-3.61
			c0-0.56-0.21-0.71-0.45-0.71c-0.33,0-0.58,0.25-0.81,0.69v3.63h-1.58v-5.31h1.38l0.11,0.62c0.41-0.52,0.89-0.79,1.54-0.79
			c0.59,0,1.04,0.3,1.25,0.84c0.42-0.55,0.91-0.84,1.59-0.84C43.32,17.78,43.89,18.37,43.89,19.38z"/>
	</g>
	<g>
		<path class="st8" d="M31.75,72.98c0,1.64-0.8,2.84-2.11,2.84c-0.52,0-0.96-0.18-1.29-0.56v2.44l-1.58,0.17v-7.53h1.39l0.08,0.59
			c0.44-0.55,1.01-0.76,1.5-0.76C31.14,70.17,31.75,71.26,31.75,72.98z M30.11,73c0-1.32-0.32-1.67-0.87-1.67
			c-0.34,0-0.66,0.23-0.89,0.62v2.24c0.22,0.32,0.48,0.47,0.81,0.47C29.75,74.66,30.11,74.19,30.11,73z"/>
		<path class="st8" d="M36.15,70.26l-0.25,1.53c-0.17-0.04-0.3-0.07-0.48-0.07c-0.65,0-0.93,0.48-1.1,1.28v2.65h-1.58v-5.31h1.38
			l0.13,1.02c0.24-0.73,0.76-1.17,1.37-1.17C35.82,70.19,35.98,70.21,36.15,70.26z"/>
		<path class="st8" d="M41.13,74.76l-0.33,1.03c-0.62-0.05-1.03-0.24-1.28-0.76c-0.38,0.58-0.97,0.79-1.6,0.79
			c-1.06,0-1.73-0.69-1.73-1.66c0-1.16,0.88-1.79,2.49-1.79h0.54v-0.23c0-0.63-0.25-0.82-0.9-0.82c-0.34,0-0.86,0.1-1.39,0.28
			l-0.36-1.04c0.67-0.25,1.4-0.39,2-0.39c1.54,0,2.2,0.65,2.2,1.88v2.06C40.77,74.52,40.88,74.67,41.13,74.76z M39.22,74.19v-0.95
			h-0.39c-0.72,0-1.07,0.25-1.07,0.78c0,0.42,0.23,0.67,0.62,0.67C38.74,74.69,39.03,74.5,39.22,74.19z"/>
		<path class="st8" d="M46.15,70.82l-0.68,0.94c-0.34-0.26-0.65-0.38-1.01-0.38c-0.68,0-1.07,0.46-1.07,1.65
			c0,1.18,0.42,1.54,1.05,1.54c0.38,0,0.64-0.12,1.02-0.36l0.69,0.98c-0.49,0.39-1.06,0.63-1.79,0.63c-1.63,0-2.63-1.1-2.63-2.78
			c0-1.69,1.01-2.87,2.6-2.87C45.07,70.17,45.64,70.39,46.15,70.82z"/>
		<path class="st8" d="M50.15,75.4c-0.4,0.28-0.96,0.42-1.44,0.42c-1.17-0.01-1.74-0.67-1.74-1.92v-2.46h-0.75v-1.1h0.75v-1.15
			l1.58-0.18v1.33h1.22l-0.17,1.1h-1.05v2.44c0,0.51,0.17,0.69,0.5,0.69c0.18,0,0.36-0.05,0.57-0.18L50.15,75.4z"/>
		<path class="st8" d="M52.4,68.44c0,0.51-0.39,0.9-0.94,0.9c-0.55,0-0.93-0.39-0.93-0.9s0.38-0.9,0.93-0.9
			C52.01,67.54,52.4,67.93,52.4,68.44z M52.26,75.65h-1.58v-5.31h1.58V75.65z"/>
		<path class="st8" d="M57.62,70.82l-0.68,0.94c-0.34-0.26-0.65-0.38-1.01-0.38c-0.68,0-1.07,0.46-1.07,1.65
			c0,1.18,0.42,1.54,1.05,1.54c0.38,0,0.64-0.12,1.02-0.36l0.69,0.98c-0.49,0.39-1.06,0.63-1.79,0.63c-1.63,0-2.63-1.1-2.63-2.78
			c0-1.69,1.01-2.87,2.6-2.87C56.54,70.17,57.11,70.39,57.62,70.82z"/>
		<path class="st8" d="M62.87,74.76l-0.33,1.03c-0.62-0.05-1.03-0.24-1.28-0.76c-0.38,0.58-0.97,0.79-1.6,0.79
			c-1.06,0-1.73-0.69-1.73-1.66c0-1.16,0.88-1.79,2.49-1.79h0.54v-0.23c0-0.63-0.25-0.82-0.9-0.82c-0.34,0-0.86,0.1-1.39,0.28
			l-0.36-1.04c0.67-0.25,1.4-0.39,2-0.39c1.54,0,2.2,0.65,2.2,1.88v2.06C62.51,74.52,62.62,74.67,62.87,74.76z M60.96,74.19v-0.95
			h-0.39c-0.72,0-1.07,0.25-1.07,0.78c0,0.42,0.23,0.67,0.62,0.67C60.48,74.69,60.77,74.5,60.96,74.19z"/>
		<path class="st8" d="M63.72,74.3v-6.07l1.58-0.17v6.18c0,0.22,0.08,0.33,0.27,0.33c0.11,0,0.19-0.02,0.26-0.05l0.31,1.12
			c-0.24,0.1-0.58,0.18-0.96,0.18C64.26,75.82,63.72,75.27,63.72,74.3z"/>
		<path class="st8" d="M32.46,84.98c0,1.64-0.8,2.84-2.11,2.84c-0.52,0-0.96-0.18-1.29-0.56v2.44l-1.58,0.17v-7.53h1.39l0.08,0.59
			c0.44-0.55,1.01-0.76,1.5-0.76C31.85,82.17,32.46,83.26,32.46,84.98z M30.82,85c0-1.32-0.32-1.67-0.87-1.67
			c-0.34,0-0.66,0.23-0.89,0.62v2.24c0.22,0.32,0.48,0.47,0.81,0.47C30.46,86.66,30.82,86.19,30.82,85z"/>
		<path class="st8" d="M36.86,82.26l-0.25,1.53c-0.17-0.04-0.3-0.07-0.48-0.07c-0.65,0-0.93,0.48-1.1,1.28v2.65h-1.58v-5.31h1.38
			l0.13,1.02c0.24-0.73,0.76-1.17,1.37-1.17C36.53,82.19,36.69,82.21,36.86,82.26z"/>
		<path class="st8" d="M42.26,85c0,1.7-0.98,2.82-2.6,2.82c-1.61,0-2.6-1.04-2.6-2.83c0-1.7,0.98-2.82,2.6-2.82
			S42.26,83.21,42.26,85z M38.7,84.99c0,1.18,0.32,1.67,0.96,1.67s0.96-0.51,0.96-1.66c0-1.18-0.32-1.67-0.96-1.67
			S38.7,83.84,38.7,84.99z"/>
		<path class="st8" d="M48.18,85c0,1.64-0.79,2.82-2.11,2.82c-0.59,0-1.07-0.25-1.39-0.68l-0.08,0.51h-1.4v-7.42l1.58-0.17v2.82
			c0.31-0.43,0.85-0.71,1.4-0.71C47.49,82.17,48.18,83.22,48.18,85z M46.54,85c0-1.35-0.36-1.67-0.85-1.67
			c-0.38,0-0.68,0.23-0.91,0.62v2.2c0.2,0.33,0.49,0.52,0.84,0.52C46.16,86.67,46.54,86.24,46.54,85z"/>
		<path class="st8" d="M49.12,86.3v-6.07l1.58-0.17v6.18c0,0.22,0.08,0.33,0.27,0.33c0.11,0,0.19-0.02,0.26-0.05l0.31,1.12
			c-0.24,0.1-0.58,0.18-0.96,0.18C49.66,87.82,49.12,87.27,49.12,86.3z"/>
		<path class="st8" d="M56.64,85.46h-3.28c0.1,0.95,0.55,1.21,1.2,1.21c0.43,0,0.81-0.15,1.27-0.47l0.65,0.88
			c-0.53,0.42-1.21,0.74-2.07,0.74c-1.77,0-2.67-1.14-2.67-2.8c0-1.59,0.87-2.85,2.48-2.85c1.52,0,2.45,1,2.45,2.72
			C56.67,85.06,56.66,85.3,56.64,85.46z M55.12,84.44c-0.01-0.72-0.23-1.22-0.86-1.22c-0.53,0-0.83,0.33-0.91,1.29h1.77V84.44z"/>
		<path class="st8" d="M64.84,83.77v3.88h-1.58v-3.61c0-0.56-0.21-0.71-0.45-0.71c-0.34,0-0.58,0.25-0.81,0.69v3.63h-1.58v-3.61
			c0-0.56-0.21-0.71-0.45-0.71c-0.33,0-0.58,0.25-0.81,0.69v3.63h-1.58v-5.31h1.38l0.11,0.62c0.41-0.52,0.89-0.79,1.54-0.79
			c0.59,0,1.04,0.3,1.25,0.84c0.42-0.55,0.91-0.84,1.59-0.84C64.27,82.17,64.84,82.76,64.84,83.77z"/>
	</g>
	<g>
	</g>
	<g>
	</g>
	<g>
	</g>
	<g>
	</g>
	<g>
	</g>
	<g>
	</g>
	<g>
	</g>
</g>
</svg>
